solid ASCII
  facet normal -7.071068e-01 0.000000e+00 -7.071068e-01
    outer loop
      vertex   -2.970000e+01 -4.120000e+01 4.800000e+01
      vertex   -3.070000e+01 -4.220000e+01 4.900000e+01
      vertex   -2.970000e+01 4.120000e+01 4.800000e+01
    endloop
  endfacet
  facet normal -7.071068e-01 5.952957e-17 -7.071068e-01
    outer loop
      vertex   -2.970000e+01 4.120000e+01 4.800000e+01
      vertex   -3.070000e+01 -4.220000e+01 4.900000e+01
      vertex   -3.070000e+01 4.220000e+01 4.900000e+01
    endloop
  endfacet
  facet normal 1.691682e-16 -7.071068e-01 -7.071068e-01
    outer loop
      vertex   -2.970000e+01 -4.120000e+01 4.800000e+01
      vertex   2.970000e+01 -4.120000e+01 4.800000e+01
      vertex   -3.070000e+01 -4.220000e+01 4.900000e+01
    endloop
  endfacet
  facet normal 1.636578e-16 -7.071068e-01 -7.071068e-01
    outer loop
      vertex   -3.070000e+01 -4.220000e+01 4.900000e+01
      vertex   2.970000e+01 -4.120000e+01 4.800000e+01
      vertex   3.070000e+01 -4.220000e+01 4.900000e+01
    endloop
  endfacet
  facet normal 7.071068e-01 -3.048723e-17 -7.071068e-01
    outer loop
      vertex   2.970000e+01 -4.120000e+01 4.800000e+01
      vertex   2.970000e+01 4.120000e+01 4.800000e+01
      vertex   3.070000e+01 -4.220000e+01 4.900000e+01
    endloop
  endfacet
  facet normal 7.071068e-01 -5.952957e-17 -7.071068e-01
    outer loop
      vertex   3.070000e+01 -4.220000e+01 4.900000e+01
      vertex   2.970000e+01 4.120000e+01 4.800000e+01
      vertex   3.070000e+01 4.220000e+01 4.900000e+01
    endloop
  endfacet
  facet normal 0.000000e+00 7.071068e-01 -7.071068e-01
    outer loop
      vertex   -3.070000e+01 4.220000e+01 4.900000e+01
      vertex   3.070000e+01 4.220000e+01 4.900000e+01
      vertex   -2.970000e+01 4.120000e+01 4.800000e+01
    endloop
  endfacet
  facet normal 8.458411e-17 7.071068e-01 -7.071068e-01
    outer loop
      vertex   -2.970000e+01 4.120000e+01 4.800000e+01
      vertex   3.070000e+01 4.220000e+01 4.900000e+01
      vertex   2.970000e+01 4.120000e+01 4.800000e+01
    endloop
  endfacet
  facet normal 0.000000e+00 1.000000e+00 -0.000000e+00
    outer loop
      vertex   3.070000e+01 4.220000e+01 4.900000e+01
      vertex   -3.070000e+01 4.220000e+01 4.900000e+01
      vertex   3.070000e+01 4.220000e+01 5.000000e+01
    endloop
  endfacet
  facet normal 0.000000e+00 1.000000e+00 0.000000e+00
    outer loop
      vertex   3.070000e+01 4.220000e+01 5.000000e+01
      vertex   -3.070000e+01 4.220000e+01 4.900000e+01
      vertex   -3.070000e+01 4.220000e+01 5.000000e+01
    endloop
  endfacet
  facet normal -1.000000e+00 8.418753e-17 0.000000e+00
    outer loop
      vertex   -3.070000e+01 4.220000e+01 4.900000e+01
      vertex   -3.070000e+01 -4.220000e+01 4.900000e+01
      vertex   -3.070000e+01 4.220000e+01 5.000000e+01
    endloop
  endfacet
  facet normal -1.000000e+00 8.418753e-17 0.000000e+00
    outer loop
      vertex   -3.070000e+01 4.220000e+01 5.000000e+01
      vertex   -3.070000e+01 -4.220000e+01 4.900000e+01
      vertex   -3.070000e+01 -4.220000e+01 5.000000e+01
    endloop
  endfacet
  facet normal 0.000000e+00 0.000000e+00 -1.000000e+00
    outer loop
      vertex   -2.970000e+01 4.120000e+01 4.800000e+01
      vertex   2.970000e+01 4.120000e+01 4.800000e+01
      vertex   -2.970000e+01 -4.120000e+01 4.800000e+01
    endloop
  endfacet
  facet normal 0.000000e+00 0.000000e+00 -1.000000e+00
    outer loop
      vertex   -2.970000e+01 -4.120000e+01 4.800000e+01
      vertex   2.970000e+01 4.120000e+01 4.800000e+01
      vertex   2.970000e+01 -4.120000e+01 4.800000e+01
    endloop
  endfacet
  facet normal 0.000000e+00 -7.071068e-01 7.071068e-01
    outer loop
      vertex   3.058363e+01 -4.350000e+01 5.200000e+01
      vertex   -3.058363e+01 -4.350000e+01 5.200000e+01
      vertex   3.099785e+01 -4.450000e+01 5.100000e+01
    endloop
  endfacet
  facet normal 0.000000e+00 -7.071068e-01 7.071068e-01
    outer loop
      vertex   3.099785e+01 -4.450000e+01 5.100000e+01
      vertex   -3.058363e+01 -4.350000e+01 5.200000e+01
      vertex   -3.099785e+01 -4.450000e+01 5.100000e+01
    endloop
  endfacet
  facet normal -5.000000e-01 -5.000000e-01 7.071068e-01
    outer loop
      vertex   -3.058363e+01 -4.350000e+01 5.200000e+01
      vertex   -3.199785e+01 -4.208579e+01 5.200000e+01
      vertex   -3.099785e+01 -4.450000e+01 5.100000e+01
    endloop
  endfacet
  facet normal -5.000000e-01 -5.000000e-01 7.071068e-01
    outer loop
      vertex   -3.099785e+01 -4.450000e+01 5.100000e+01
      vertex   -3.199785e+01 -4.208579e+01 5.200000e+01
      vertex   -3.299785e+01 -4.250000e+01 5.100000e+01
    endloop
  endfacet
  facet normal -7.071068e-01 0.000000e+00 7.071068e-01
    outer loop
      vertex   -3.199785e+01 -4.208579e+01 5.200000e+01
      vertex   -3.199785e+01 4.208579e+01 5.200000e+01
      vertex   -3.299785e+01 -4.250000e+01 5.100000e+01
    endloop
  endfacet
  facet normal -7.071068e-01 0.000000e+00 7.071068e-01
    outer loop
      vertex   -3.299785e+01 -4.250000e+01 5.100000e+01
      vertex   -3.199785e+01 4.208579e+01 5.200000e+01
      vertex   -3.299785e+01 4.250000e+01 5.100000e+01
    endloop
  endfacet
  facet normal -5.000000e-01 5.000000e-01 7.071068e-01
    outer loop
      vertex   -3.058363e+01 4.350000e+01 5.200000e+01
      vertex   -3.099785e+01 4.450000e+01 5.100000e+01
      vertex   -3.199785e+01 4.208579e+01 5.200000e+01
    endloop
  endfacet
  facet normal -5.000000e-01 5.000000e-01 7.071068e-01
    outer loop
      vertex   -3.199785e+01 4.208579e+01 5.200000e+01
      vertex   -3.099785e+01 4.450000e+01 5.100000e+01
      vertex   -3.299785e+01 4.250000e+01 5.100000e+01
    endloop
  endfacet
  facet normal -0.000000e+00 7.071068e-01 7.071068e-01
    outer loop
      vertex   -3.058363e+01 4.350000e+01 5.200000e+01
      vertex   3.058363e+01 4.350000e+01 5.200000e+01
      vertex   -3.099785e+01 4.450000e+01 5.100000e+01
    endloop
  endfacet
  facet normal -0.000000e+00 7.071068e-01 7.071068e-01
    outer loop
      vertex   -3.099785e+01 4.450000e+01 5.100000e+01
      vertex   3.058363e+01 4.350000e+01 5.200000e+01
      vertex   3.099785e+01 4.450000e+01 5.100000e+01
    endloop
  endfacet
  facet normal 5.000000e-01 5.000000e-01 7.071068e-01
    outer loop
      vertex   3.299785e+01 4.250000e+01 5.100000e+01
      vertex   3.099785e+01 4.450000e+01 5.100000e+01
      vertex   3.199785e+01 4.208579e+01 5.200000e+01
    endloop
  endfacet
  facet normal 5.000000e-01 5.000000e-01 7.071068e-01
    outer loop
      vertex   3.199785e+01 4.208579e+01 5.200000e+01
      vertex   3.099785e+01 4.450000e+01 5.100000e+01
      vertex   3.058363e+01 4.350000e+01 5.200000e+01
    endloop
  endfacet
  facet normal 7.071068e-01 0.000000e+00 7.071068e-01
    outer loop
      vertex   3.299785e+01 4.250000e+01 5.100000e+01
      vertex   3.199785e+01 4.208579e+01 5.200000e+01
      vertex   3.299785e+01 -4.250000e+01 5.100000e+01
    endloop
  endfacet
  facet normal 7.071068e-01 4.241310e-31 7.071068e-01
    outer loop
      vertex   3.299785e+01 -4.250000e+01 5.100000e+01
      vertex   3.199785e+01 4.208579e+01 5.200000e+01
      vertex   3.199785e+01 -4.208579e+01 5.200000e+01
    endloop
  endfacet
  facet normal 5.000000e-01 -5.000000e-01 7.071068e-01
    outer loop
      vertex   3.299785e+01 -4.250000e+01 5.100000e+01
      vertex   3.199785e+01 -4.208579e+01 5.200000e+01
      vertex   3.099785e+01 -4.450000e+01 5.100000e+01
    endloop
  endfacet
  facet normal 5.000000e-01 -5.000000e-01 7.071068e-01
    outer loop
      vertex   3.099785e+01 -4.450000e+01 5.100000e+01
      vertex   3.199785e+01 -4.208579e+01 5.200000e+01
      vertex   3.058363e+01 -4.350000e+01 5.200000e+01
    endloop
  endfacet
  facet normal 7.071068e-01 7.071068e-01 0.000000e+00
    outer loop
      vertex   3.099785e+01 4.450000e+01 5.100000e+01
      vertex   3.299785e+01 4.250000e+01 5.100000e+01
      vertex   3.099785e+01 4.450000e+01 5.000000e+01
    endloop
  endfacet
  facet normal 7.071068e-01 7.071068e-01 -8.924942e-30
    outer loop
      vertex   3.099785e+01 4.450000e+01 5.000000e+01
      vertex   3.299785e+01 4.250000e+01 5.100000e+01
      vertex   3.299785e+01 4.250000e+01 5.000000e+01
    endloop
  endfacet
  facet normal 1.000000e+00 0.000000e+00 0.000000e+00
    outer loop
      vertex   3.299785e+01 4.250000e+01 5.100000e+01
      vertex   3.299785e+01 -4.250000e+01 5.100000e+01
      vertex   3.299785e+01 4.250000e+01 5.000000e+01
    endloop
  endfacet
  facet normal 1.000000e+00 0.000000e+00 0.000000e+00
    outer loop
      vertex   3.299785e+01 4.250000e+01 5.000000e+01
      vertex   3.299785e+01 -4.250000e+01 5.100000e+01
      vertex   3.299785e+01 -4.250000e+01 5.000000e+01
    endloop
  endfacet
  facet normal 7.071068e-01 -7.071068e-01 0.000000e+00
    outer loop
      vertex   3.299785e+01 -4.250000e+01 5.100000e+01
      vertex   3.099785e+01 -4.450000e+01 5.100000e+01
      vertex   3.299785e+01 -4.250000e+01 5.000000e+01
    endloop
  endfacet
  facet normal 7.071068e-01 -7.071068e-01 8.924942e-30
    outer loop
      vertex   3.299785e+01 -4.250000e+01 5.000000e+01
      vertex   3.099785e+01 -4.450000e+01 5.100000e+01
      vertex   3.099785e+01 -4.450000e+01 5.000000e+01
    endloop
  endfacet
  facet normal -0.000000e+00 -1.000000e+00 -0.000000e+00
    outer loop
      vertex   3.099785e+01 -4.450000e+01 5.100000e+01
      vertex   -3.099785e+01 -4.450000e+01 5.100000e+01
      vertex   3.099785e+01 -4.450000e+01 5.000000e+01
    endloop
  endfacet
  facet normal 0.000000e+00 -1.000000e+00 0.000000e+00
    outer loop
      vertex   3.099785e+01 -4.450000e+01 5.000000e+01
      vertex   -3.099785e+01 -4.450000e+01 5.100000e+01
      vertex   -3.099785e+01 -4.450000e+01 5.000000e+01
    endloop
  endfacet
  facet normal -0.000000e+00 0.000000e+00 1.000000e+00
    outer loop
      vertex   -3.199785e+01 -4.208579e+01 5.200000e+01
      vertex   -3.058363e+01 -4.350000e+01 5.200000e+01
      vertex   -3.058363e+01 4.350000e+01 5.200000e+01
    endloop
  endfacet
  facet normal 0.000000e+00 0.000000e+00 1.000000e+00
    outer loop
      vertex   -3.058363e+01 4.350000e+01 5.200000e+01
      vertex   -3.058363e+01 -4.350000e+01 5.200000e+01
      vertex   3.058363e+01 -4.350000e+01 5.200000e+01
    endloop
  endfacet
  facet normal -0.000000e+00 0.000000e+00 1.000000e+00
    outer loop
      vertex   -3.058363e+01 4.350000e+01 5.200000e+01
      vertex   3.058363e+01 -4.350000e+01 5.200000e+01
      vertex   3.058363e+01 4.350000e+01 5.200000e+01
    endloop
  endfacet
  facet normal 0.000000e+00 0.000000e+00 1.000000e+00
    outer loop
      vertex   3.058363e+01 4.350000e+01 5.200000e+01
      vertex   3.058363e+01 -4.350000e+01 5.200000e+01
      vertex   3.199785e+01 -4.208579e+01 5.200000e+01
    endloop
  endfacet
  facet normal 0.000000e+00 0.000000e+00 1.000000e+00
    outer loop
      vertex   3.058363e+01 4.350000e+01 5.200000e+01
      vertex   3.199785e+01 -4.208579e+01 5.200000e+01
      vertex   3.199785e+01 4.208579e+01 5.200000e+01
    endloop
  endfacet
  facet normal 0.000000e+00 0.000000e+00 1.000000e+00
    outer loop
      vertex   -3.058363e+01 4.350000e+01 5.200000e+01
      vertex   -3.199785e+01 4.208579e+01 5.200000e+01
      vertex   -3.199785e+01 -4.208579e+01 5.200000e+01
    endloop
  endfacet
  facet normal 0.000000e+00 0.000000e+00 -1.000000e+00
    outer loop
      vertex   -3.299785e+01 4.250000e+01 5.000000e+01
      vertex   -3.099785e+01 4.450000e+01 5.000000e+01
      vertex   -3.070000e+01 4.220000e+01 5.000000e+01
    endloop
  endfacet
  facet normal 0.000000e+00 0.000000e+00 -1.000000e+00
    outer loop
      vertex   -3.070000e+01 4.220000e+01 5.000000e+01
      vertex   -3.099785e+01 4.450000e+01 5.000000e+01
      vertex   3.099785e+01 4.450000e+01 5.000000e+01
    endloop
  endfacet
  facet normal 0.000000e+00 0.000000e+00 -1.000000e+00
    outer loop
      vertex   -3.070000e+01 4.220000e+01 5.000000e+01
      vertex   3.099785e+01 4.450000e+01 5.000000e+01
      vertex   3.070000e+01 4.220000e+01 5.000000e+01
    endloop
  endfacet
  facet normal 0.000000e+00 0.000000e+00 -1.000000e+00
    outer loop
      vertex   3.070000e+01 4.220000e+01 5.000000e+01
      vertex   3.099785e+01 4.450000e+01 5.000000e+01
      vertex   3.299785e+01 4.250000e+01 5.000000e+01
    endloop
  endfacet
  facet normal 0.000000e+00 -0.000000e+00 -1.000000e+00
    outer loop
      vertex   3.070000e+01 4.220000e+01 5.000000e+01
      vertex   3.299785e+01 4.250000e+01 5.000000e+01
      vertex   3.070000e+01 -4.220000e+01 5.000000e+01
    endloop
  endfacet
  facet normal 0.000000e+00 0.000000e+00 -1.000000e+00
    outer loop
      vertex   3.070000e+01 -4.220000e+01 5.000000e+01
      vertex   3.299785e+01 4.250000e+01 5.000000e+01
      vertex   3.299785e+01 -4.250000e+01 5.000000e+01
    endloop
  endfacet
  facet normal 0.000000e+00 0.000000e+00 -1.000000e+00
    outer loop
      vertex   3.070000e+01 -4.220000e+01 5.000000e+01
      vertex   3.299785e+01 -4.250000e+01 5.000000e+01
      vertex   3.099785e+01 -4.450000e+01 5.000000e+01
    endloop
  endfacet
  facet normal 0.000000e+00 0.000000e+00 -1.000000e+00
    outer loop
      vertex   3.099785e+01 -4.450000e+01 5.000000e+01
      vertex   -3.099785e+01 -4.450000e+01 5.000000e+01
      vertex   3.070000e+01 -4.220000e+01 5.000000e+01
    endloop
  endfacet
  facet normal 0.000000e+00 0.000000e+00 -1.000000e+00
    outer loop
      vertex   3.070000e+01 -4.220000e+01 5.000000e+01
      vertex   -3.099785e+01 -4.450000e+01 5.000000e+01
      vertex   -3.070000e+01 -4.220000e+01 5.000000e+01
    endloop
  endfacet
  facet normal 0.000000e+00 0.000000e+00 -1.000000e+00
    outer loop
      vertex   -3.070000e+01 -4.220000e+01 5.000000e+01
      vertex   -3.099785e+01 -4.450000e+01 5.000000e+01
      vertex   -3.299785e+01 -4.250000e+01 5.000000e+01
    endloop
  endfacet
  facet normal -0.000000e+00 0.000000e+00 -1.000000e+00
    outer loop
      vertex   -3.070000e+01 -4.220000e+01 5.000000e+01
      vertex   -3.299785e+01 -4.250000e+01 5.000000e+01
      vertex   -3.299785e+01 4.250000e+01 5.000000e+01
    endloop
  endfacet
  facet normal 0.000000e+00 0.000000e+00 -1.000000e+00
    outer loop
      vertex   -3.070000e+01 -4.220000e+01 5.000000e+01
      vertex   -3.299785e+01 4.250000e+01 5.000000e+01
      vertex   -3.070000e+01 4.220000e+01 5.000000e+01
    endloop
  endfacet
  facet normal -7.071068e-01 -7.071068e-01 -0.000000e+00
    outer loop
      vertex   -3.099785e+01 -4.450000e+01 5.100000e+01
      vertex   -3.299785e+01 -4.250000e+01 5.100000e+01
      vertex   -3.099785e+01 -4.450000e+01 5.000000e+01
    endloop
  endfacet
  facet normal -7.071068e-01 -7.071068e-01 -8.924942e-30
    outer loop
      vertex   -3.099785e+01 -4.450000e+01 5.000000e+01
      vertex   -3.299785e+01 -4.250000e+01 5.100000e+01
      vertex   -3.299785e+01 -4.250000e+01 5.000000e+01
    endloop
  endfacet
  facet normal -1.000000e+00 0.000000e+00 0.000000e+00
    outer loop
      vertex   -3.299785e+01 -4.250000e+01 5.100000e+01
      vertex   -3.299785e+01 4.250000e+01 5.100000e+01
      vertex   -3.299785e+01 -4.250000e+01 5.000000e+01
    endloop
  endfacet
  facet normal -1.000000e+00 0.000000e+00 0.000000e+00
    outer loop
      vertex   -3.299785e+01 -4.250000e+01 5.000000e+01
      vertex   -3.299785e+01 4.250000e+01 5.100000e+01
      vertex   -3.299785e+01 4.250000e+01 5.000000e+01
    endloop
  endfacet
  facet normal -7.071068e-01 7.071068e-01 0.000000e+00
    outer loop
      vertex   -3.299785e+01 4.250000e+01 5.100000e+01
      vertex   -3.099785e+01 4.450000e+01 5.100000e+01
      vertex   -3.299785e+01 4.250000e+01 5.000000e+01
    endloop
  endfacet
  facet normal -7.071068e-01 7.071068e-01 8.924942e-30
    outer loop
      vertex   -3.299785e+01 4.250000e+01 5.000000e+01
      vertex   -3.099785e+01 4.450000e+01 5.100000e+01
      vertex   -3.099785e+01 4.450000e+01 5.000000e+01
    endloop
  endfacet
  facet normal -0.000000e+00 1.000000e+00 0.000000e+00
    outer loop
      vertex   -3.099785e+01 4.450000e+01 5.100000e+01
      vertex   3.099785e+01 4.450000e+01 5.100000e+01
      vertex   -3.099785e+01 4.450000e+01 5.000000e+01
    endloop
  endfacet
  facet normal 0.000000e+00 1.000000e+00 0.000000e+00
    outer loop
      vertex   -3.099785e+01 4.450000e+01 5.000000e+01
      vertex   3.099785e+01 4.450000e+01 5.100000e+01
      vertex   3.099785e+01 4.450000e+01 5.000000e+01
    endloop
  endfacet
  facet normal 1.000000e+00 -8.418753e-17 0.000000e+00
    outer loop
      vertex   3.070000e+01 -4.220000e+01 4.900000e+01
      vertex   3.070000e+01 4.220000e+01 4.900000e+01
      vertex   3.070000e+01 -4.220000e+01 5.000000e+01
    endloop
  endfacet
  facet normal 1.000000e+00 -8.418753e-17 0.000000e+00
    outer loop
      vertex   3.070000e+01 -4.220000e+01 5.000000e+01
      vertex   3.070000e+01 4.220000e+01 4.900000e+01
      vertex   3.070000e+01 4.220000e+01 5.000000e+01
    endloop
  endfacet
  facet normal 2.314471e-16 -1.000000e+00 0.000000e+00
    outer loop
      vertex   -3.070000e+01 -4.220000e+01 4.900000e+01
      vertex   3.070000e+01 -4.220000e+01 4.900000e+01
      vertex   -3.070000e+01 -4.220000e+01 5.000000e+01
    endloop
  endfacet
  facet normal 2.314471e-16 -1.000000e+00 0.000000e+00
    outer loop
      vertex   -3.070000e+01 -4.220000e+01 5.000000e+01
      vertex   3.070000e+01 -4.220000e+01 4.900000e+01
      vertex   3.070000e+01 -4.220000e+01 5.000000e+01
    endloop
  endfacet
endsolid
